<?xml version="1.0" encoding="iso-8859-1"?><!-- Generator: Adobe Illustrator 19.0.0, SVG Export Plug-In . SVG Version: 6.00 Build 0)  -->
<svg style="enable-background:new 0 0 504.123 504.123;" id="Layer_1" version="1.1"
    viewBox="0 0 504.123 504.123" x="0px" xmlns="http://www.w3.org/2000/svg" y="0px"
    xml:space="preserve">
<g>
	<circle style="fill:#CC0D0D;" cx="87.65" cy="220.065" r="8.365" />
    <circle style="fill:#CC0D0D;" cx="87.65" cy="252.062" r="8.365" />
    <circle style="fill:#CC0D0D;" cx="87.65" cy="284.058" r="8.365" />
    <circle style="fill:#CC0D0D;" cx="416.473" cy="220.065" r="8.365" />
    <circle style="fill:#CC0D0D;" cx="416.473" cy="252.062" r="8.365" />
    <circle style="fill:#CC0D0D;" cx="416.473" cy="284.058" r="8.365" />
</g>
    <polygon style="fill:#FFDB45;" points="327.668,252.077 328.038,251.731 252.081,19.692 176.156,251.731 176.494,252.062
	252.081,176.475 " />
    <polyline style="fill:#FF8F43;"
        points="252.081,176.475 327.668,252.077 328.038,251.731 252.081,19.692 " />
    <path style="fill:#CC0D0D;" d="M176.494,271.754c-4.97,0-9.941-1.867-13.769-5.608c-5.356-5.246-7.617-13.407-5.293-20.535
	l75.926-232.038C236.004,5.474,243.558,0,252.081,0c8.507,0,16.061,5.467,18.708,13.572l75.957,232.038
	c2.387,7.27,0.339,15.258-5.246,20.496c-7.751,7.263-20.259,7.412-27.75-0.102l-61.668-61.676l-61.661,61.653
	C186.592,269.832,181.528,271.754,176.494,271.754z M252.081,156.782L252.081,156.782c5.215,0,10.232,2.08,13.926,5.766
	l18.014,18.015l-31.941-97.556l-31.909,97.532l17.983-17.983C241.849,158.862,246.851,156.782,252.081,156.782z" />
    <polygon style="fill:#FFDB45;" points="252.081,327.672 176.494,252.062 176.14,252.4 252.081,484.431 328.007,252.4
	327.668,252.077 " />
    <polyline style="fill:#FF8F43;"
        points="252.081,327.672 176.494,252.062 176.14,252.4 252.081,484.431 " />
    <path style="fill:#CC0D0D;" d="M252.081,504.123c-8.523,0-16.077-5.474-18.723-13.572l-75.941-232.031
	c-2.339-7.2-0.37-15.116,5.104-20.354c7.735-7.396,20.322-7.593,27.892-0.031l61.661,61.676l61.661-61.661
	c7.554-7.554,19.771-7.704,27.522-0.323c5.474,5.238,7.814,13.485,5.443,20.693l-75.926,232.031
	C268.142,498.649,260.588,504.123,252.081,504.123z M220.156,323.592l31.925,97.524l31.894-97.501l-17.967,17.975
	c-3.694,3.694-8.704,5.766-13.926,5.766l0,0c-5.23,0-10.232-2.079-13.926-5.766L220.156,323.592z" />
    <rect style="fill:#45FFBC;" height="106.889"
        transform="matrix(-0.707 -0.7072 0.7072 -0.707 252.014 608.5348)" width="106.905"
        x="198.612" y="198.619" />
    <polyline style="fill:#15B79F;" points="176.494,252.062 252.081,327.672 327.668,252.077 " />
    <path style="fill:#CC0D0D;" d="M252.081,347.364L252.081,347.364c-5.23,0-10.232-2.079-13.926-5.766l-75.587-75.611
	c-7.696-7.696-7.696-20.165,0-27.845l75.587-75.587c3.694-3.694,8.696-5.766,13.926-5.766l0,0c5.215,0,10.232,2.079,13.926,5.766
	l75.587,75.603c7.696,7.696,7.696,20.157,0,27.845l-75.587,75.595C262.313,345.285,257.296,347.364,252.081,347.364z
	 M204.339,252.062l47.742,47.75l47.742-47.742l-47.742-47.742L204.339,252.062z" />
    <g>
</g>
    <g>
</g>
    <g>
</g>
    <g>
</g>
    <g>
</g>
    <g>
</g>
    <g>
</g>
    <g>
</g>
    <g>
</g>
    <g>
</g>
    <g>
</g>
    <g>
</g>
    <g>
</g>
    <g>
</g>
    <g>
</g>
</svg>
