<?xml version="1.0" encoding="iso-8859-1"?><!-- Generator: Adobe Illustrator 21.0.0, SVG Export Plug-In . SVG Version: 6.00 Build 0)  -->
<svg style="enable-background:new 0 0 506.367 506.367;" height="512" id="Capa_1" version="1.1"
	viewBox="0 0 506.367 506.367" width="512" x="0px" xmlns="http://www.w3.org/2000/svg" y="0px"
	xml:space="preserve">
<g>
	<path style="fill:#F9D735;"
		d="M419.943,349.174c-5.602,9.708-12.021,18.884-19.173,27.428l-27.428-27.428h-79.076l64.715,64.715   c-30.356,20.025-66.712,31.691-105.798,31.691c-38.278,0-73.944-11.181-103.914-30.451l65.955-65.955H136.15l-29.121,29.121   c-7.729-9.02-14.628-18.77-20.601-29.121H26.964c37.382,87.987,124.593,149.693,226.219,149.693s188.837-61.706,226.219-149.693   H419.943z" />
	<path style="fill:#6ABA0F;"
		d="M72.758,186.264h-56.03C10.719,207.539,7.5,229.985,7.5,253.183c0,34.084,6.945,66.544,19.49,96.049   h59.472c-16.323-28.266-25.675-61.062-25.675-96.049C60.787,229.648,65.024,207.106,72.758,186.264z" />
	<path style="fill:#A2DB18;"
		d="M433.611,186.264c7.734,20.843,11.969,43.385,11.969,66.919c0,34.986-9.348,67.784-25.671,96.049   h59.468c12.545-29.505,19.49-61.965,19.49-96.049c0-23.198-3.219-45.644-9.228-66.919H433.611z" />
	<polygon style="fill:#6ABA0F;"
		points="282.822,186.264 226.907,186.264 226.907,258.417 136.091,349.232 215.167,349.232    254.746,309.653 294.325,349.232 373.401,349.232 282.822,258.653  " />
	<path style="fill:#F66722;"
		d="M72.711,186.391c24.227-65.428,83.01-114.087,154.196-123.811v123.811h55.915V63.06   c69.674,10.773,126.992,58.932,150.836,123.331h56.015C460.576,83.163,365.718,7.5,253.184,7.5S45.791,83.163,16.694,186.391   H72.711z" />
	<polygon style="fill:#A2DB18;"
		points="282.822,186.264 226.907,186.264 226.907,258.417 136.091,349.232 215.167,349.232    254.746,309.653 294.325,349.232 373.401,349.232 282.822,258.653  " />
	<path style="fill:#E6BF14;"
		d="M253.184,7.5c-5.039,0-10.037,0.17-15,0.469c128.7,7.754,230.684,114.566,230.684,245.215   S366.883,490.645,238.184,498.398c4.963,0.299,9.961,0.469,15,0.469c135.687,0,245.684-109.997,245.684-245.684   S388.871,7.5,253.184,7.5z" />
	<path style="fill:#6ABA0F;"
		d="M489.639,186.264h-30c6.009,21.275,9.228,43.721,9.228,66.919c0,34.084-6.945,66.544-19.49,96.049   h30c12.545-29.505,19.49-61.965,19.49-96.049C498.867,229.985,495.648,207.539,489.639,186.264z" />
	<path style="fill:#DF4B0F;"
		d="M253.184,7.5c-5.037,0-10.038,0.158-15,0.457c105.894,6.378,193.695,79.827,221.49,178.434h30   C460.576,83.163,365.718,7.5,253.184,7.5z" />
	<path
		d="M432.211,74.156C384.392,26.335,320.812,0,253.184,0c-55.421,0-108.05,17.578-152.196,50.833   c-3.309,2.492-3.97,7.194-1.478,10.503c2.492,3.309,7.194,3.971,10.503,1.478C151.537,31.534,201.045,15,253.184,15   c63.621,0,123.435,24.775,168.421,69.762c26.869,26.869,46.521,59.03,57.998,94.129h-40.839   c-8.172-20.422-19.717-39.51-34.32-56.397c-31.04-35.893-73.826-59.633-120.476-66.847c-2.161-0.335-4.365,0.293-6.027,1.718   c-1.662,1.425-2.619,3.505-2.619,5.694v115.832h-40.915v-40.565c0-4.142-3.358-7.5-7.5-7.5s-7.5,3.358-7.5,7.5v116.984   L107.58,367.137C82.185,334.71,68.287,294.56,68.287,253.184c0-44.974,16.339-88.317,46.007-122.046   c27.488-31.25,64.552-52.259,105.113-59.758v34.947c0,4.142,3.358,7.5,7.5,7.5s7.5-3.358,7.5-7.5V62.581   c0-2.166-0.937-4.227-2.569-5.651s-3.798-2.073-5.946-1.78c-47.445,6.48-91.078,29.949-122.861,66.081   c-15.136,17.208-27.06,36.731-35.436,57.661H26.759c11.586-35.447,31.51-67.884,58.795-94.917c2.943-2.916,2.965-7.664,0.05-10.606   c-2.916-2.943-7.665-2.964-10.606-0.05C26.634,121.232,0,185.109,0,253.184c0,67.627,26.335,131.208,74.156,179.028   c47.82,47.82,111.4,74.156,179.028,74.156s131.208-26.336,179.028-74.156c47.82-47.82,74.156-111.4,74.156-179.028   C506.367,185.556,480.032,121.976,432.211,74.156z M483.477,193.891c0.161,0,0.318-0.014,0.476-0.024   c4.887,19.148,7.415,39.037,7.415,59.316c0,30.671-5.774,60.451-16.779,88.118c-0.364-0.054-0.733-0.091-1.111-0.091h-40.836   c13.34-27.217,20.44-57.345,20.44-88.026c0-20.264-3.089-40.24-9.005-59.292H483.477z M290.322,72.022   c39.76,8.122,75.991,29.311,102.776,60.284c29.008,33.543,44.983,76.472,44.983,120.877c0,40.565-13.417,80.089-37.932,112.19   L290.322,255.547V72.022z M232.21,263.72c1.407-1.406,2.197-3.314,2.197-5.303v-64.526h40.915v64.762   c0,1.989,0.79,3.897,2.197,5.303l77.253,77.253H296.91l-36.86-36.86c-2.929-2.929-7.678-2.929-10.606,0l-36.86,36.86H154.72   L232.21,263.72z M254.746,320.26l92.265,92.265c-28.37,16.747-60.615,25.556-93.827,25.556c-32.417,0-63.979-8.409-91.859-24.399   L254.746,320.26z M22.398,193.891h39.884c-5.911,19.042-8.995,39.012-8.995,59.292c0,30.727,7.101,60.825,20.44,88.026H31.743   C20.761,313.569,15,283.821,15,253.184C15,232.906,17.52,213.026,22.398,193.891z M421.605,421.605   c-44.987,44.987-104.8,69.762-168.421,69.762s-123.435-24.775-168.421-69.762c-19.346-19.347-34.943-41.441-46.451-65.395h43.586   c5.691,9.463,12.176,18.491,19.437,26.965c1.359,1.586,3.319,2.534,5.407,2.615c0.097,0.003,0.193,0.005,0.289,0.005   c1.985,0,3.894-0.788,5.303-2.197l27.611-27.611c0.573,0.14,1.168,0.223,1.785,0.223h55.855l-53.616,53.616   c-1.604,1.604-2.396,3.848-2.154,6.104s1.493,4.281,3.401,5.508c32.195,20.701,69.53,31.643,107.97,31.643   c39.258,0,77.27-11.387,109.928-32.931c1.881-1.241,3.104-3.262,3.332-5.503c0.228-2.242-0.565-4.467-2.158-6.061L311.91,356.21   h57.056c0.259,0,0.515-0.013,0.767-0.039l25.734,25.734c1.41,1.41,3.318,2.197,5.303,2.197c0.11,0,0.221-0.002,0.332-0.007   c2.102-0.093,4.068-1.065,5.419-2.678c6.764-8.08,12.837-16.655,18.197-25.621c0.766,0.264,1.586,0.415,2.442,0.415h40.897   C456.548,380.164,440.951,402.258,421.605,421.605z" />
</g>















</svg>
