<?xml version="1.0" encoding="iso-8859-1"?><!-- Generator: Adobe Illustrator 19.0.0, SVG Export Plug-In . SVG Version: 6.00 Build 0)  -->
<svg style="enable-background:new 0 0 489.093 489.093;" id="Layer_1" version="1.1"
    viewBox="0 0 489.093 489.093" x="0px" xmlns="http://www.w3.org/2000/svg" y="0px"
    xml:space="preserve">
<path style="fill:#FF4800;" d="M447.648,40.466c45.639,70.412,17.235,188.062-71.239,276.512
	c-88.466,88.458-163.123,73.909-225.8,20.567" />
    <path style="fill:#6D3007;" d="M251.544,400.426c-38.203,0-76.17-15.951-113.696-47.884c-8.287-7.058-9.287-19.48-2.237-27.758
	c7.066-8.287,19.48-9.279,27.758-2.237c41.653,35.454,107.622,71.987,199.113-19.495c80.227-80.195,109.733-188.479,68.647-251.88
	c-5.916-9.121-3.316-21.315,5.813-27.231c9.129-5.916,21.315-3.324,27.231,5.813c51.807,79.927,20.756,206.588-73.838,301.143
	C343.988,377.236,297.593,400.426,251.544,400.426z" />
    <path style="fill:#FFE092;" d="M338.411,149.924c28.83,44.505,10.862,118.816-45.032,174.726
	c-55.91,55.895-103.062,46.71-142.675,12.981" />
    <path style="fill:#6D3007;" d="M214.357,384.412c-25.836,0-51.507-10.579-76.414-31.783c-8.287-7.05-9.287-19.48-2.229-27.75
	c7.05-8.286,19.488-9.279,27.75-2.229c26.175,22.268,63.015,41.055,115.996-11.918c48.309-48.325,66.552-112.853,42.425-150.095
	c-5.908-9.129-3.3-21.323,5.821-27.238c9.121-5.9,21.323-3.3,27.238,5.821c34.556,53.343,14.517,137.184-47.64,199.357
	C276.774,369.1,245.432,384.412,214.357,384.412z" />
    <path style="fill:#FF4800;" d="M41.427,448.633c-45.631-70.428-17.219-188.046,71.247-276.512
	c88.481-88.458,163.123-73.909,225.816-20.567" />
    <path style="fill:#6D3007;" d="M41.443,468.325c-6.451,0-12.768-3.159-16.542-8.988c-51.783-79.919-20.724-206.572,73.846-301.135
	c84.803-84.771,169.756-92.042,252.503-21.646c8.286,7.05,9.287,19.48,2.237,27.758c-7.058,8.294-19.48,9.287-27.758,2.237
	C284.076,131.106,218.13,94.557,126.6,186.048c-80.203,80.211-109.718,188.487-68.647,251.88c5.916,9.129,3.316,21.323-5.813,27.231
	C48.824,467.301,45.114,468.325,41.443,468.325z" />
    <path style="fill:#FFD561;" d="M150.704,339.175c-28.861-44.505-10.894-118.8,45.001-174.71
	c55.926-55.91,103.077-46.726,142.69-12.997" />
    <path style="fill:#6D3007;" d="M150.72,358.867c-6.443,0-12.768-3.159-16.542-8.98c-34.588-53.335-14.564-137.169,47.6-199.349
	c55.934-55.918,114.499-60.794,169.378-14.068c8.287,7.05,9.287,19.48,2.229,27.75c-7.05,8.287-19.495,9.271-27.75,2.229
	c-26.175-22.276-63.031-41.039-116.011,11.934c-48.309,48.333-66.536,112.845-42.401,150.071c5.916,9.121,3.316,21.323-5.805,27.238
	C158.108,357.843,154.398,358.867,150.72,358.867z" />
    <g>
</g>
    <g>
</g>
    <g>
</g>
    <g>
</g>
    <g>
</g>
    <g>
</g>
    <g>
</g>
    <g>
</g>
    <g>
</g>
    <g>
</g>
    <g>
</g>
    <g>
</g>
    <g>
</g>
    <g>
</g>
    <g>
</g>
</svg>
