<?xml version="1.0" encoding="iso-8859-1"?><!-- Generator: Adobe Illustrator 19.0.0, SVG Export Plug-In . SVG Version: 6.00 Build 0)  -->
<svg style="enable-background:new 0 0 496.252 496.252;" id="Layer_1" version="1.1"
	viewBox="0 0 496.252 496.252" x="0px" xmlns="http://www.w3.org/2000/svg" y="0px"
	xml:space="preserve">
<path style="fill:#F4D576;" d="M382.962,262.67v158.09c0,30.815-24.986,55.8-55.8,55.8H169.087c-30.83,0-55.816-24.986-55.816-55.8
	V262.67" />
	<path style="fill:#FC8300;" d="M327.162,496.252H169.087c-41.63,0-75.5-33.871-75.5-75.492V262.67
	c0-10.878,8.806-19.692,19.684-19.692c10.886,0,19.7,8.814,19.7,19.692v158.09c0,19.905,16.195,36.108,36.116,36.108h158.074
	c19.905,0,36.108-16.203,36.108-36.108V262.67c0-10.878,8.814-19.692,19.692-19.692c10.878,0,19.692,8.814,19.692,19.692v158.09
	C402.654,462.381,368.775,496.252,327.162,496.252z" />
	<polyline style="fill:#F4D576;" points="72.887,194.936 248.125,19.698 423.362,194.936 " />
	<path style="fill:#FC8300;" d="M423.362,214.628c-5.041,0-10.075-1.922-13.926-5.766L248.125,47.543L86.813,208.863
	c-7.696,7.696-20.157,7.696-27.845,0s-7.696-20.157,0-27.845L234.198,5.772c7.696-7.696,20.149-7.696,27.845,0L437.281,181.01
	c7.696,7.696,7.696,20.157,0,27.845C433.437,212.706,428.404,214.628,423.362,214.628z" />
	<polyline style="fill:#FFEAB0;" points="112.886,259.314 248.132,124.075 383.363,259.314 " />
	<g>
	<path style="fill:#FC8300;" d="M383.363,279.007c-5.049,0-10.075-1.922-13.926-5.766L248.132,151.928l-121.32,121.312
		c-7.696,7.696-20.157,7.696-27.845,0c-7.688-7.696-7.696-20.165,0-27.845l135.247-135.239c3.694-3.694,8.696-5.766,13.926-5.766
		l0,0c5.222,0,10.232,2.08,13.926,5.766l135.231,135.239c7.696,7.696,7.696,20.165,0,27.845
		C393.438,277.085,388.413,279.007,383.363,279.007z" />
		<circle style="fill:#FC8300;" cx="248.125" cy="319.525" r="8.365" />
		<circle style="fill:#FC8300;" cx="248.125" cy="351.529" r="8.365" />
		<circle style="fill:#FC8300;" cx="248.125" cy="383.525" r="8.365" />
</g>
	<g>
</g>
	<g>
</g>
	<g>
</g>
	<g>
</g>
	<g>
</g>
	<g>
</g>
	<g>
</g>
	<g>
</g>
	<g>
</g>
	<g>
</g>
	<g>
</g>
	<g>
</g>
	<g>
</g>
	<g>
</g>
	<g>
</g>
</svg>
