<svg enable-background="new 0 0 512 512" height="512" id="Capa_1" viewBox="0 0 512 512" width="512"
    xmlns="http://www.w3.org/2000/svg">
    <g>
        <circle cx="256" cy="256" fill="#ffdf40" r="165" />
        <path d="m421 256c0-90.981-74.019-165-165-165v330c90.981 0 165-74.019 165-165z"
            fill="#ffbe40" />
        <path
            d="m256 451c-8.291 0-15 6.709-15 15v31c0 8.291 6.709 15 15 15s15-6.709 15-15v-31c0-8.291-6.709-15-15-15z"
            fill="#ffdf40" />
        <path d="m271 497v-31c0-8.291-6.709-15-15-15v61c8.291 0 15-6.709 15-15z" fill="#ffbe40" />
        <path
            d="m256 0c-8.291 0-15 6.709-15 15v31c0 8.291 6.709 15 15 15s15-6.709 15-15v-31c0-8.291-6.709-15-15-15z"
            fill="#ffdf40" />
        <path d="m271 46v-31c0-8.291-6.709-15-15-15v61c8.291 0 15-6.709 15-15z" fill="#ffbe40" />
        <path
            d="m46 271h-31c-8.291 0-15-6.709-15-15s6.709-15 15-15h31c8.291 0 15 6.709 15 15s-6.709 15-15 15z"
            fill="#ffdf40" />
        <path
            d="m497 271h-31c-8.291 0-15-6.709-15-15s6.709-15 15-15h31c8.291 0 15 6.709 15 15s-6.709 15-15 15z"
            fill="#ffbe40" />
        <path
            d="m35.16 383.5c-4.146-7.178-1.685-16.348 5.493-20.493l25.986-15c7.148-4.131 16.333-1.67 20.493 5.493 4.146 7.178 1.685 16.348-5.493 20.493l-25.986 15c-7.098 4.1-16.301 1.744-20.493-5.493z"
            fill="#ffdf40" />
        <path
            d="m424.867 158.5c-4.146-7.178-1.685-16.348 5.493-20.493l25.986-15c7.148-4.146 16.318-1.685 20.493 5.493 4.146 7.178 1.685 16.348-5.493 20.493l-25.986 15c-7.098 4.1-16.301 1.744-20.493-5.493z"
            fill="#ffbe40" />
        <path
            d="m128.5 476.84c-7.178-4.146-9.639-13.315-5.493-20.493l15-25.986c4.131-7.163 13.301-9.639 20.493-5.493 7.178 4.146 9.639 13.315 5.493 20.493l-15 25.986c-4.185 7.225-13.384 9.599-20.493 5.493z"
            fill="#ffdf40" />
        <path
            d="m353.5 87.133c-7.178-4.146-9.639-13.315-5.493-20.493l15-25.986c4.131-7.192 13.315-9.668 20.493-5.493 7.178 4.146 9.639 13.315 5.493 20.493l-15 25.986c-4.185 7.225-13.384 9.599-20.493 5.493z"
            fill="#ffbe40" />
        <path
            d="m363.007 471.347-15-25.986c-4.146-7.178-1.685-16.348 5.493-20.493 7.134-4.146 16.348-1.67 20.493 5.493l15 25.986c4.146 7.178 1.685 16.348-5.493 20.493-7.098 4.1-16.301 1.743-20.493-5.493z"
            fill="#ffbe40" />
        <path
            d="m138.007 81.64-15-25.986c-4.146-7.178-1.685-16.348 5.493-20.493 7.119-4.175 16.333-1.699 20.493 5.493l15 25.986c4.146 7.178 1.685 16.348-5.493 20.493-7.098 4.1-16.301 1.743-20.493-5.493z"
            fill="#ffdf40" />
        <path
            d="m456.347 388.993-25.986-15c-7.178-4.146-9.639-13.315-5.493-20.493 4.146-7.163 13.33-9.624 20.493-5.493l25.986 15c7.178 4.146 9.639 13.315 5.493 20.493-4.186 7.226-13.385 9.599-20.493 5.493z"
            fill="#ffbe40" />
        <path
            d="m66.64 163.993-25.986-15c-7.178-4.146-9.639-13.315-5.493-20.493s13.301-9.639 20.493-5.493l25.986 15c7.178 4.146 9.639 13.315 5.493 20.493-4.186 7.226-13.385 9.599-20.493 5.493z"
            fill="#ffdf40" />
        <g>
            <path
                d="m256 151c-57.891 0-105 47.109-105 105 0 56.774 47.415 105 105 105 57.486 0 105-47.891 105-105 0-57.891-47.109-105-105-105zm-15 178.482c-13.136-2.677-24.842-9.014-34.515-17.593l34.515-25.889zm0-80.973-52.582 39.443c-4.624-9.73-7.418-20.482-7.418-31.952 0-36.216 25.809-66.513 60-73.482zm30 80.973v-43.482l34.515 25.889c-9.673 8.579-21.379 14.916-34.515 17.593zm52.582-41.53-52.582-39.443v-65.991c34.191 6.969 60 37.266 60 73.482 0 11.47-2.794 22.222-7.418 31.952z"
                fill="#ffbe40" />
            <path
                d="m361 256c0-57.891-47.109-105-105-105v210c57.486 0 105-47.891 105-105zm-90 73.482v-43.482l34.515 25.889c-9.673 8.579-21.379 14.916-34.515 17.593zm0-80.973v-65.991c34.191 6.969 60 37.266 60 73.482 0 11.47-2.794 22.222-7.418 31.952z"
                fill="#ff9f40" />
        </g>
    </g>
</svg>