<svg enable-background="new 0 0 512 512" height="512" id="Capa_1" viewBox="0 0 512 512" width="512"
    xmlns="http://www.w3.org/2000/svg">
    <path
        d="m256 512c-68.38 0-132.667-26.629-181.02-74.98-48.351-48.353-74.98-112.64-74.98-181.02s26.629-132.667 74.98-181.02c48.353-48.351 112.64-74.98 181.02-74.98s132.667 26.629 181.02 74.98c48.351 48.353 74.98 112.64 74.98 181.02s-26.629 132.667-74.98 181.02c-48.353 48.351-112.64 74.98-181.02 74.98zm0-482c-60.367 0-117.12 23.508-159.806 66.194s-66.194 99.439-66.194 159.806 23.508 117.12 66.194 159.806 99.439 66.194 159.806 66.194 117.12-23.508 159.806-66.194 66.194-99.439 66.194-159.806-23.508-117.12-66.194-159.806-99.439-66.194-159.806-66.194zm15 422.222v-168.257l139.801 93.412-12.157 12.906c-29.248 31.052-68.372 52.009-110.166 59.011zm30-112.131v75.68c23.002-6.529 44.549-18.085 62.829-33.699zm-60 112.131-17.479-2.928c-41.793-7.002-80.918-27.959-110.166-59.011l-12.157-12.906 139.802-93.412zm-92.829-70.151c18.279 15.614 39.827 27.17 62.829 33.699v-75.68zm279.331-29.615-156.502-104.572v-188.106l17.479 2.928c45.166 7.566 86.544 31.033 116.512 66.077 30.314 35.448 47.009 80.628 47.009 127.217 0 27.946-5.793 54.966-17.218 80.308zm-126.502-120.607 112.902 75.439c5.38-16.48 8.098-33.664 8.098-51.288 0-39.445-14.138-77.7-39.809-107.72-21.471-25.107-49.835-43.2-81.191-52.063zm-216.502 120.607-7.28-16.148c-11.425-25.342-17.218-52.362-17.218-80.308 0-46.589 16.695-91.769 47.009-127.217 29.968-35.044 71.347-58.51 116.512-66.077l17.479-2.928v188.105zm126.502-256.239c-31.355 8.863-59.72 26.956-81.191 52.063-25.671 30.02-39.809 68.275-39.809 107.72 0 17.624 2.718 34.808 8.098 51.288l112.902-75.439z" />
</svg>