<svg height="512pt" viewBox="0 0 512 512" width="512pt" xmlns="http://www.w3.org/2000/svg">
    <linearGradient gradientUnits="userSpaceOnUse" id="a" x1="0" x2="512" y1="256" y2="256">
        <stop offset="0" stop-color="#80d8ff" />
        <stop offset="1" stop-color="#ea80fc" />
    </linearGradient>
    <path
        d="m256 0c-141.484375 0-256 114.496094-256 256 0 141.484375 114.496094 256 256 256 141.484375 0 256-114.496094 256-256 0-141.484375-114.496094-256-256-256zm-20 471.078125c-43.535156-3.96875-84.351562-20.875-117.941406-48.851563l117.941406-117.941406zm0-223.363281-146.226562 146.226562c-32.222657-38.691406-49.773438-86.964844-49.773438-137.941406 0-113.28125 86.707031-205.109375 196-215.078125zm40 223.363281v-166.792969l117.941406 117.941406c-33.589844 27.976563-74.40625 44.882813-117.941406 48.851563zm146.226562-77.136719-146.226562-146.226562v-206.792969c109.28125 9.96875 196 101.78125 196 215.078125 0 50.976562-17.550781 99.25-49.773438 137.941406zm0 0"
        fill="url(#a)" />
</svg>