<?xml version="1.0" encoding="iso-8859-1"?><!-- Generator: Adobe Illustrator 19.0.0, SVG Export Plug-In . SVG Version: 6.00 Build 0)  -->
<svg style="enable-background:new 0 0 495.078 495.078;" id="Layer_1" version="1.1"
    viewBox="0 0 495.078 495.078" x="0px" xmlns="http://www.w3.org/2000/svg" y="0px"
    xml:space="preserve">
<path style="fill:#77D0E5;" d="M75.566,218.055C20.782,163.295,20.782,74.466,75.551,19.69" />
    <path style="fill:#FF80CC;" d="M75.566,237.747c-5.041,0-10.075-1.922-13.926-5.758c-30.216-30.216-46.844-70.38-46.86-113.113
	c0-42.724,16.636-82.889,46.844-113.105c7.696-7.696,20.157-7.696,27.845,0c7.696,7.688,7.696,20.157,0,27.845
	c-22.764,22.772-35.304,53.051-35.304,85.26s12.54,62.488,35.32,85.244c7.696,7.696,7.696,20.165,0.008,27.853
	C85.641,235.825,80.615,237.747,75.566,237.747z" />
    <path style="fill:#77D0E5;" d="M419.52,277.014c54.784,54.768,54.784,143.588,0.016,198.372" />
    <path style="fill:#FF80CC;" d="M419.536,495.078c-5.041,0-10.075-1.922-13.926-5.766c-7.696-7.688-7.696-20.157,0-27.845
	c47.002-47.025,47.002-123.518-0.016-170.52c-7.696-7.688-7.696-20.157,0-27.845c7.68-7.696,20.157-7.696,27.845,0
	c30.216,30.208,46.852,70.372,46.86,113.097c0,42.732-16.644,82.897-46.844,113.113
	C429.618,493.156,424.585,495.078,419.536,495.078z" />
    <polyline style="fill:#77D0E5;"
        points="120.039,120.113 247.543,247.625 375.047,120.113 240.903,120.113 " />
    <path style="fill:#FF80CC;" d="M247.543,267.317c-5.222,0-10.232-2.079-13.926-5.766L106.121,134.04
	c-7.696-7.696-7.696-20.165,0-27.845c7.696-7.696,20.157-7.696,27.845,0L247.543,219.78l79.959-79.967h-86.599
	c-10.878,0-19.692-8.814-19.692-19.692s8.814-19.692,19.692-19.692h134.136c7.964,0,15.139,4.797,18.196,12.154
	c3.048,7.365,1.363,15.833-4.269,21.465L261.47,261.543C257.775,265.238,252.766,267.317,247.543,267.317z" />
    <polyline style="fill:#77D0E5;"
        points="375.047,374.963 247.535,247.452 120.039,374.963 254.168,374.963 " />
    <path style="fill:#FF80CC;" d="M375.047,394.655c-5.041,0-10.075-1.922-13.926-5.766L247.535,275.304l-79.951,79.967h86.583
	c10.878,0,19.692,8.814,19.692,19.692c0,10.878-8.814,19.692-19.692,19.692H120.039c-7.964,0-15.139-4.797-18.204-12.154
	c-3.04-7.365-1.355-15.833,4.277-21.465l127.496-127.512c7.389-7.389,20.464-7.389,27.845,0l127.512,127.512
	c7.696,7.696,7.696,20.157,0,27.845C385.121,392.734,380.072,394.655,375.047,394.655z" />
    <g>
</g>
    <g>
</g>
    <g>
</g>
    <g>
</g>
    <g>
</g>
    <g>
</g>
    <g>
</g>
    <g>
</g>
    <g>
</g>
    <g>
</g>
    <g>
</g>
    <g>
</g>
    <g>
</g>
    <g>
</g>
    <g>
</g>
</svg>
