<?xml version="1.0" encoding="iso-8859-1"?><!-- Generator: Adobe Illustrator 19.0.0, SVG Export Plug-In . SVG Version: 6.00 Build 0)  -->
<svg style="enable-background:new 0 0 499.058 499.058;" id="Layer_1" version="1.1"
    viewBox="0 0 499.058 499.058" x="0px" xmlns="http://www.w3.org/2000/svg" y="0px"
    xml:space="preserve">
<circle style="fill:#71FFFF;" cx="249.521" cy="280.355" r="114.869" />
    <path style="fill:#2EE8ED;"
        d="M249.529,165.494c63.449,0,114.861,51.428,114.861,114.861c0,63.449-51.413,114.877-114.861,114.877" />
    <path style="fill:#0092AA;" d="M249.529,414.925c-74.201,0-134.569-60.369-134.569-134.569c0-74.193,60.369-134.554,134.569-134.554
	s134.554,60.361,134.554,134.554C384.083,354.556,323.73,414.925,249.529,414.925z M249.529,185.186
	c-52.476,0-95.185,42.693-95.185,95.169c0,52.484,42.709,95.185,95.185,95.185s95.169-42.701,95.169-95.185
	C344.698,227.879,302.005,185.186,249.529,185.186z" />
    <path style="fill:#2EE8ED;"
        d="M188.885,80.329c0-33.485,27.168-60.637,60.644-60.637c33.493,0,60.629,27.152,60.629,60.637" />
    <path style="fill:#0092AA;" d="M310.158,100.021c-10.878,0-19.692-8.814-19.692-19.692c0-22.575-18.353-40.944-40.936-40.944
	s-40.952,18.369-40.952,40.944c0,10.878-8.799,19.692-19.692,19.692c-10.878,0-19.692-8.814-19.692-19.692
	C169.192,36.037,205.237,0,249.529,0s80.321,36.029,80.321,80.329C329.85,91.199,321.036,100.021,310.158,100.021z" />
    <path style="fill:#2EE8ED;"
        d="M452.25,375.863c23.678,23.678,23.678,62.07,0,85.74c-23.678,23.694-62.078,23.678-85.74,0" />
    <path style="fill:#0092AA;" d="M409.376,499.058L409.376,499.058c-21.465,0-41.63-8.365-56.785-23.536
	c-7.696-7.696-7.696-20.165,0.016-27.845c7.68-7.688,20.157-7.696,27.845,0.016c7.719,7.727,17.999,11.981,28.924,11.981l0,0
	c10.957,0,21.213-4.254,28.94-11.989c7.735-7.727,11.997-18.007,11.997-28.948c0-10.933-4.261-21.213-11.981-28.948
	c-7.696-7.696-7.696-20.157,0-27.845c7.696-7.688,20.157-7.696,27.845,0c15.171,15.171,23.52,35.336,23.52,56.793
	c0,21.465-8.357,41.63-23.52,56.793C451.005,490.701,430.84,499.058,409.376,499.058z" />
    <path style="fill:#2EE8ED;"
        d="M46.824,375.863c-23.678,23.678-23.678,62.07,0,85.74c23.678,23.694,62.062,23.678,85.725,0" />
    <g>
	<path style="fill:#0092AA;" d="M89.667,499.058c-21.449,0-41.614-8.357-56.785-23.528c-15.155-15.163-23.52-35.328-23.52-56.793
		c0-21.457,8.365-41.622,23.536-56.793c7.696-7.696,20.157-7.696,27.845,0s7.696,20.157,0,27.845
		c-7.735,7.727-11.997,18.015-11.997,28.948c0,10.941,4.261,21.213,11.997,28.948c7.719,7.735,17.999,11.989,28.924,11.989h0.016
		c10.925,0,21.197-4.261,28.94-11.989c7.696-7.696,20.157-7.696,27.845,0c7.712,7.696,7.712,20.157,0,27.845
		c-15.171,15.179-35.336,23.528-56.785,23.528H89.667z" />
        <circle style="fill:#0092AA;" cx="217.533" cy="286.31" r="8.365" />
        <circle style="fill:#0092AA;" cx="249.529" cy="286.31" r="8.365" />
        <circle style="fill:#0092AA;" cx="281.525" cy="286.31" r="8.365" />
</g>
    <g>
</g>
    <g>
</g>
    <g>
</g>
    <g>
</g>
    <g>
</g>
    <g>
</g>
    <g>
</g>
    <g>
</g>
    <g>
</g>
    <g>
</g>
    <g>
</g>
    <g>
</g>
    <g>
</g>
    <g>
</g>
    <g>
</g>
</svg>
