<svg enable-background="new 0 0 512 512" height="512" id="Capa_1" viewBox="0 0 512 512" width="512"
    xmlns="http://www.w3.org/2000/svg">
    <g>
        <path
            d="m324.401 91h-136.802l-96.599 96.599v136.8l96.599 96.601h136.802l96.599-96.601v-136.8zm-68.401 300c-74.399 0-135-60.601-135-135 0-74.401 60.601-135 135-135s135 60.599 135 135c0 74.399-60.601 135-135 135z" />
        <path
            d="m329.5 181.3c.899 4.799 1.5 9.598 1.5 14.7 0 41.4-33.6 75-75 75-24.901 0-45 20.099-45 45 0 24.899 20.099 45 45 45 57.9 0 105-47.1 105-105 0-29.401-12.001-55.8-31.5-74.7zm-73.5 149.7c-8.401 0-15-6.601-15-15 0-8.401 6.599-15 15-15s15 6.599 15 15c0 8.399-6.599 15-15 15z" />
        <path
            d="m256 151c-57.9 0-105 47.1-105 105 0 29.399 12.001 55.8 31.5 74.7-.899-4.801-1.5-9.6-1.5-14.7 0-41.4 33.6-75 75-75 24.901 0 45-20.101 45-45 0-24.901-20.099-45-45-45zm0 60c-8.401 0-15-6.601-15-15 0-8.401 6.599-15 15-15s15 6.599 15 15c0 8.399-6.599 15-15 15z" />
        <path
            d="m507.499 145.899-141.4-141.4c-2.999-2.999-6.599-4.499-10.799-4.499h-198.6c-4.2 0-7.8 1.5-10.8 4.499l-141.4 141.4c-3 3.001-4.5 6.601-4.5 10.801v198.6c0 4.2 1.5 7.8 4.501 10.8l141.4 141.4c2.999 3 6.599 4.5 10.799 4.5h198.6c4.2 0 7.8-1.5 10.8-4.501l141.4-141.4c3-2.999 4.5-6.599 4.5-10.799v-198.6c0-4.2-1.5-7.8-4.501-10.801zm-56.499 184.5c0 4.2-1.5 7.8-4.501 10.8l-105.298 105.3c-3.001 3.001-6.601 4.501-10.802 4.501h-148.798c-4.2 0-7.8-1.5-10.801-4.501l-105.298-105.3c-3.002-2.999-4.502-6.599-4.502-10.8v-149.099c0-3.9 1.5-7.8 4.501-10.501l105.298-105.3c2.701-2.999 6.601-4.499 10.501-4.499h149.099c4.2 0 7.8 1.5 10.801 4.499l105.298 105.3c3.002 3.001 4.502 6.601 4.502 10.8z" />
    </g>
</svg>